<svg xmlns="http://www.w3.org/2000/svg" viewBox="0 0 160 160" role="img"><title>Resoniq — Soundhole q</title>
          <path d="M98 68L98.67 68.54L99.26 69.11L99.71 69.71L99.97 70.31L100.01 70.9L99.82 71.46L99.42 71.97L98.83 72.43L98.11 72.83L97.32 73.18L96.52 73.49L95.79 73.78L95.18 74.08L94.72 74.42L94.45 74.81L94.36 75.28L94.45 75.84L94.67 76.49L94.98 77.22L95.32 78L95.63 78.81L95.86 79.6L95.95 80.34L95.87 80.99L95.61 81.51L95.17 81.9L94.56 82.14L93.82 82.25L93 82.24L92.14 82.14L91.3 82.01L90.52 81.9L89.83 81.85L89.27 81.92L88.84 82.12L88.53 82.49L88.32 83.02L88.19 83.69L88.09 84.47L88 85.32L87.87 86.17L87.67 86.97L87.38 87.66L86.99 88.18L86.5 88.51L85.92 88.62L85.27 88.53L84.58 88.25L83.87 87.83L83.18 87.32L82.51 86.79L81.89 86.3L81.32 85.92L80.8 85.69L80.32 85.65L79.87 85.81L79.43 86.16L78.98 86.68L78.51 87.31L78 88L77.46 88.67L76.89 89.26L76.29 89.71L75.69 89.97L75.1 90.01L74.54 89.82L74.03 89.42L73.57 88.83L73.17 88.11L72.82 87.32L72.51 86.52L72.22 85.79L71.92 85.18L71.58 84.72L71.19 84.45L70.72 84.36L70.16 84.45L69.51 84.67L68.78 84.98L68 85.32L67.19 85.63L66.4 85.86L65.66 85.95L65.01 85.87L64.49 85.61L64.1 85.17L63.86 84.56L63.75 83.82L63.76 83L63.86 82.14L63.99 81.3L64.1 80.52L64.15 79.83L64.08 79.27L63.88 78.84L63.51 78.53L62.98 78.32L62.31 78.19L61.53 78.09L60.68 78L59.83 77.87L59.03 77.67L58.34 77.38L57.82 76.99L57.49 76.5L57.38 75.92L57.47 75.27L57.75 74.58L58.17 73.87L58.68 73.18L59.21 72.51L59.7 71.89L60.08 71.32L60.31 70.8L60.35 70.32L60.19 69.87L59.84 69.43L59.32 68.98L58.69 68.51L58 68L57.33 67.46L56.74 66.89L56.29 66.29L56.03 65.69L55.99 65.1L56.18 64.54L56.58 64.03L57.17 63.57L57.89 63.17L58.68 62.82L59.48 62.51L60.21 62.22L60.82 61.92L61.28 61.58L61.55 61.19L61.64 60.72L61.55 60.16L61.33 59.51L61.02 58.78L60.68 58L60.37 57.19L60.14 56.4L60.05 55.66L60.13 55.01L60.39 54.49L60.83 54.1L61.44 53.86L62.18 53.75L63 53.76L63.86 53.86L64.7 53.99L65.48 54.1L66.17 54.15L66.73 54.08L67.16 53.88L67.47 53.51L67.68 52.98L67.81 52.31L67.91 51.53L68 50.68L68.13 49.83L68.33 49.03L68.62 48.34L69.01 47.82L69.5 47.49L70.08 47.38L70.73 47.47L71.42 47.75L72.13 48.17L72.82 48.68L73.49 49.21L74.11 49.7L74.68 50.08L75.2 50.31L75.68 50.35L76.13 50.19L76.57 49.84L77.02 49.32L77.49 48.69L78 48L78.54 47.33L79.11 46.74L79.71 46.29L80.31 46.03L80.9 45.99L81.46 46.18L81.97 46.58L82.43 47.17L82.83 47.89L83.18 48.68L83.49 49.48L83.78 50.21L84.08 50.82L84.42 51.28L84.81 51.55L85.28 51.64L85.84 51.55L86.49 51.33L87.22 51.02L88 50.68L88.81 50.37L89.6 50.14L90.34 50.05L90.99 50.13L91.51 50.39L91.9 50.83L92.14 51.44L92.25 52.18L92.24 53L92.14 53.86L92.01 54.7L91.9 55.48L91.85 56.17L91.92 56.73L92.12 57.16L92.49 57.47L93.02 57.68L93.69 57.81L94.47 57.91L95.32 58L96.17 58.13L96.97 58.33L97.66 58.62L98.18 59.01L98.51 59.5L98.62 60.08L98.53 60.73L98.25 61.42L97.83 62.13L97.32 62.82L96.79 63.49L96.3 64.11L95.92 64.68L95.69 65.2L95.65 65.68L95.81 66.13L96.16 66.57L96.68 67.02L97.31 67.49L98 68Z" stroke="#37E6C9" stroke-width="2.5" fill="none" stroke-linecap="round" stroke-linejoin="round"/>
          <circle cx="78" cy="68" r="34" stroke="#F3EFE8" stroke-width="10" fill="none"/>
          <path d="M112 88Q90 112 112 136M112 88Q134 112 112 136" stroke="#37E6C9" stroke-width="2.5" fill="none" stroke-linecap="round" stroke-linejoin="round"/>
          <path d="M112 34V136" stroke="#FF8A3D" stroke-width="10" fill="none" stroke-linecap="round" stroke-linejoin="round"/></svg>
